<svg width="37" height="41" viewBox="0 0 37 41" fill="none" xmlns="http://www.w3.org/2000/svg">
<path fill-rule="evenodd" clip-rule="evenodd" d="M33 4.42527C33 2.20392 31.119 0.420117 28.8719 0.622057C26.9077 0.798755 25.4262 2.49842 25.4262 4.48417V13.9081C22.7129 12.4945 19.4837 11.9391 16.0963 12.6291C11.3439 13.5967 6.4917 18.2919 5.39309 23.0627C3.17088 32.6885 10.6864 41.2121 19.9747 40.5726C27.3321 40.0678 33 33.7992 33 26.3442V4.42527ZM19.0176 32.9578C15.4721 32.9578 12.6007 30.0549 12.6007 26.4704C12.6007 22.886 15.4721 19.9831 19.0176 19.9831C22.5631 19.9831 25.4345 22.886 25.4345 26.4704C25.4345 30.0549 22.5631 32.9578 19.0176 32.9578Z" fill="#2D85EB"/>
</svg>
